<?xml version="1.0" encoding="UTF-8"?>
<svg xmlns="http://www.w3.org/2000/svg" xmlns:xlink="http://www.w3.org/1999/xlink" width="233pt" height="233pt" viewBox="0 0 233 233" version="1.1">
<defs>
<clipPath id="clip0">
  <rect width="233" height="233"/>
</clipPath>
</defs>
<g id="surface0" clip-path="url(#clip0)">
<path style="fill: none; stroke-width: 0.1; stroke-linecap: butt; stroke-linejoin: miter; stroke: rgb(100%,100%,100%); opacity: 1;stroke-miterlimit: 10;" d="M 0 0 L 233 0 L 233 233 L 0 233 L 0 0 Z M 0 0 " transform="matrix(1,0,0,1,0,0)"/>
<path style="stroke: none; fill-rule: nonzero; fill: rgb(100%,100%,100%); opacity: 1;" d="M 0 0 L 233 0 L 233 233 L 0 233 L 0 0 Z M 0 0 "/>
<path style="fill: none; stroke-width: 0.1; stroke-linecap: butt; stroke-linejoin: miter; stroke: rgb(77.647066%,96.862751%,74.117649%); opacity: 1;stroke-miterlimit: 10;" d="M 79.003754 17.008102 C 104.667435 16.989304 130.330505 16.993286 155.995209 17.006485 C 156.006256 37.66951 155.99295 58.33165 156.003784 78.995209 C 176.665863 79.006638 197.327805 78.993408 217.991882 79.003754 C 218.009598 105.001129 218.005508 130.99791 217.994202 156.996292 C 197.329666 157.00592 176.667313 156.992783 156.004791 157.003708 C 155.992081 177.665817 156.005341 198.327774 155.996246 218.991898 C 130.331543 219.009674 104.668488 219.005707 79.004791 218.993515 C 78.992477 198.329208 79.005783 177.667084 78.996216 157.004791 C 58.33287 156.992081 37.670944 157.005325 17.008118 156.996246 C 16.989395 130.997849 16.993484 105.001099 17.005798 79.003708 C 37.669067 78.992798 58.331436 79.005951 78.995209 78.996292 C 79.006653 58.332916 78.993408 37.670959 79.003754 17.008102 Z M 79.003754 17.008102 " transform="matrix(1,0,0,1,0,0)"/>
<path style="stroke: none; fill-rule: nonzero; fill: rgb(77.647066%,96.862751%,74.117649%); opacity: 1;" d="M 79.003754 17.008102 C 104.667435 16.989304 130.330505 16.993286 155.995209 17.006485 C 156.006256 37.66951 155.99295 58.33165 156.003784 78.995209 C 176.665863 79.006638 197.327805 78.993408 217.991882 79.003754 C 218.009598 105.001129 218.005508 130.99791 217.994202 156.996292 C 197.329666 157.00592 176.667313 156.992783 156.004791 157.003708 C 155.992081 177.665817 156.005341 198.327774 155.996246 218.991898 C 130.331543 219.009674 104.668488 219.005707 79.004791 218.993515 C 78.992477 198.329208 79.005783 177.667084 78.996216 157.004791 C 58.33287 156.992081 37.670944 157.005325 17.008118 156.996246 C 16.989395 130.997849 16.993484 105.001099 17.005798 79.003708 C 37.669067 78.992798 58.331436 79.005951 78.995209 78.996292 C 79.006653 58.332916 78.993408 37.670959 79.003754 17.008102 Z M 79.003754 17.008102 "/>
<path style="fill: none; stroke-width: 0.1; stroke-linecap: butt; stroke-linejoin: miter; stroke: rgb(0%,50.196081%,0%); opacity: 1;stroke-miterlimit: 10;" d="M 81.003754 19.007889 C 105.334427 18.989609 129.664536 18.992584 153.996292 19.006073 C 154.005936 39.669235 153.992798 60.331512 154.003708 80.995209 C 174.66571 81.006622 195.32756 80.993423 215.991562 81.003738 C 216.009979 105.667984 216.00592 130.331696 215.994476 154.997009 C 195.329865 155.004471 174.667419 154.993591 154.004791 155.003784 C 153.992096 175.665939 154.005341 196.327957 153.996246 216.992111 C 129.66449 217.009308 105.334412 217.006348 81.003708 216.993927 C 80.992798 196.329483 81.005936 175.667221 80.996292 155.004791 C 60.333023 154.992096 39.671173 155.00531 19.008438 154.996262 C 18.988937 130.330933 18.993057 105.667282 19.005524 81.002991 C 39.668869 80.994263 60.331329 81.005142 80.995209 80.996216 C 81.006638 60.332779 80.993408 39.670792 81.003754 19.007889 Z M 81.003754 19.007889 " transform="matrix(1,0,0,1,0,0)"/>
<path style="stroke: none; fill-rule: nonzero; fill: rgb(0%,50.196081%,0%); opacity: 1;" d="M 81.003754 19.007889 C 105.334427 18.989609 129.664536 18.992584 153.996292 19.006073 C 154.005936 39.669235 153.992798 60.331512 154.003708 80.995209 C 174.66571 81.006622 195.32756 80.993423 215.991562 81.003738 C 216.009979 105.667984 216.00592 130.331696 215.994476 154.997009 C 195.329865 155.004471 174.667419 154.993591 154.004791 155.003784 C 153.992096 175.665939 154.005341 196.327957 153.996246 216.992111 C 129.66449 217.009308 105.334412 217.006348 81.003708 216.993927 C 80.992798 196.329483 81.005936 175.667221 80.996292 155.004791 C 60.333023 154.992096 39.671173 155.00531 19.008438 154.996262 C 18.988937 130.330933 18.993057 105.667282 19.005524 81.002991 C 39.668869 80.994263 60.331329 81.005142 80.995209 80.996216 C 81.006638 60.332779 80.993408 39.670792 81.003754 19.007889 Z M 81.003754 19.007889 "/>
<path style="fill: none; stroke-width: 0.1; stroke-linecap: butt; stroke-linejoin: miter; stroke: rgb(77.647066%,96.862751%,74.117649%); opacity: 1;stroke-miterlimit: 10;" d="M 87.004944 25.001022 C 88.502548 25.0009 91.497742 25.000641 92.995346 25.000504 C 92.984512 47.388336 93.078064 69.775787 92.911148 92.163803 C 90.97876 90.377396 89.049683 88.591614 87.120407 86.808655 C 86.914993 66.20607 87.004547 45.603638 87.004944 25.001022 Z M 87.004944 25.001022 " transform="matrix(1,0,0,1,0,0)"/>
<path style="stroke: none; fill-rule: nonzero; fill: rgb(77.647066%,96.862751%,74.117649%); opacity: 1;" d="M 87.004944 25.001022 C 88.502548 25.0009 91.497742 25.000641 92.995346 25.000504 C 92.984512 47.388336 93.078064 69.775787 92.911148 92.163803 C 90.97876 90.377396 89.049683 88.591614 87.120407 86.808655 C 86.914993 66.20607 87.004547 45.603638 87.004944 25.001022 Z M 87.004944 25.001022 "/>
<path style="fill: none; stroke-width: 0.1; stroke-linecap: butt; stroke-linejoin: miter; stroke: rgb(77.647066%,96.862751%,74.117649%); opacity: 1;stroke-miterlimit: 10;" d="M 99.006897 25.002304 C 100.503616 25.00174 103.497055 25.000595 104.99379 25.000015 C 104.970444 51.388916 105.091904 77.777588 104.922897 104.166626 C 102.98674 102.381073 101.055969 100.59436 99.124283 98.811737 C 98.889908 74.208725 99.01944 49.605484 99.006897 25.002304 Z M 99.006897 25.002304 " transform="matrix(1,0,0,1,0,0)"/>
<path style="stroke: none; fill-rule: nonzero; fill: rgb(77.647066%,96.862751%,74.117649%); opacity: 1;" d="M 99.006897 25.002304 C 100.503616 25.00174 103.497055 25.000595 104.99379 25.000015 C 104.970444 51.388916 105.091904 77.777588 104.922897 104.166626 C 102.98674 102.381073 101.055969 100.59436 99.124283 98.811737 C 98.889908 74.208725 99.01944 49.605484 99.006897 25.002304 Z M 99.006897 25.002304 "/>
<path style="fill: none; stroke-width: 0.1; stroke-linecap: butt; stroke-linejoin: miter; stroke: rgb(77.647066%,96.862751%,74.117649%); opacity: 1;stroke-miterlimit: 10;" d="M 111.004578 25.000702 C 112.502991 25.000748 115.499786 25.000839 116.998184 25.000885 C 116.959229 55.386917 117.110474 85.772629 116.8974 116.158707 C 114.970596 114.373337 113.045776 112.590881 111.123703 110.809036 C 110.870956 82.206375 111.040771 53.603546 111.004578 25.000702 Z M 111.004578 25.000702 " transform="matrix(1,0,0,1,0,0)"/>
<path style="stroke: none; fill-rule: nonzero; fill: rgb(77.647066%,96.862751%,74.117649%); opacity: 1;" d="M 111.004578 25.000702 C 112.502991 25.000748 115.499786 25.000839 116.998184 25.000885 C 116.959229 55.386917 117.110474 85.772629 116.8974 116.158707 C 114.970596 114.373337 113.045776 112.590881 111.123703 110.809036 C 110.870956 82.206375 111.040771 53.603546 111.004578 25.000702 Z M 111.004578 25.000702 "/>
<path style="fill: none; stroke-width: 0.1; stroke-linecap: butt; stroke-linejoin: miter; stroke: rgb(77.647066%,96.862751%,74.117649%); opacity: 1;stroke-miterlimit: 10;" d="M 148.191345 87.120407 C 168.792664 86.914993 189.395096 87.004547 209.998978 87.004944 C 209.9991 88.502548 209.999359 91.497742 209.999496 92.995346 C 187.610489 92.984512 165.223053 93.078064 142.836197 92.911148 C 144.618301 90.97876 146.404114 89.049683 148.191345 87.120407 Z M 148.191345 87.120407 " transform="matrix(1,0,0,1,0,0)"/>
<path style="stroke: none; fill-rule: nonzero; fill: rgb(77.647066%,96.862751%,74.117649%); opacity: 1;" d="M 148.191345 87.120407 C 168.792664 86.914993 189.395096 87.004547 209.998978 87.004944 C 209.9991 88.502548 209.999359 91.497742 209.999496 92.995346 C 187.610489 92.984512 165.223053 93.078064 142.836197 92.911148 C 144.618301 90.97876 146.404114 89.049683 148.191345 87.120407 Z M 148.191345 87.120407 "/>
<path style="fill: none; stroke-width: 0.1; stroke-linecap: butt; stroke-linejoin: miter; stroke: rgb(77.647066%,96.862751%,74.117649%); opacity: 1;stroke-miterlimit: 10;" d="M 136.188263 99.124283 C 160.790176 98.889908 185.393494 99.01944 209.997696 99.006897 C 209.99826 100.503616 209.999405 103.497055 209.999985 104.99379 C 183.610077 104.970444 157.221451 105.091904 130.833374 104.922897 C 132.614609 102.98674 134.401367 101.055969 136.188263 99.124283 Z M 136.188263 99.124283 " transform="matrix(1,0,0,1,0,0)"/>
<path style="stroke: none; fill-rule: nonzero; fill: rgb(77.647066%,96.862751%,74.117649%); opacity: 1;" d="M 136.188263 99.124283 C 160.790176 98.889908 185.393494 99.01944 209.997696 99.006897 C 209.99826 100.503616 209.999405 103.497055 209.999985 104.99379 C 183.610077 104.970444 157.221451 105.091904 130.833374 104.922897 C 132.614609 102.98674 134.401367 101.055969 136.188263 99.124283 Z M 136.188263 99.124283 "/>
<path style="fill: none; stroke-width: 0.1; stroke-linecap: butt; stroke-linejoin: miter; stroke: rgb(77.647066%,96.862751%,74.117649%); opacity: 1;stroke-miterlimit: 10;" d="M 124.190964 111.123703 C 152.792709 110.870956 181.395538 111.040771 209.999298 111.004578 C 209.999252 112.502991 209.999161 115.499786 209.999115 116.998184 C 179.612228 116.959229 149.226517 117.110474 118.841293 116.8974 C 120.622375 114.970596 122.404816 113.045776 124.190964 111.123703 Z M 124.190964 111.123703 " transform="matrix(1,0,0,1,0,0)"/>
<path style="stroke: none; fill-rule: nonzero; fill: rgb(77.647066%,96.862751%,74.117649%); opacity: 1;" d="M 124.190964 111.123703 C 152.792709 110.870956 181.395538 111.040771 209.999298 111.004578 C 209.999252 112.502991 209.999161 115.499786 209.999115 116.998184 C 179.612228 116.959229 149.226517 117.110474 118.841293 116.8974 C 120.622375 114.970596 122.404816 113.045776 124.190964 111.123703 Z M 124.190964 111.123703 "/>
<path style="fill: none; stroke-width: 0.1; stroke-linecap: butt; stroke-linejoin: miter; stroke: rgb(77.647066%,96.862751%,74.117649%); opacity: 1;stroke-miterlimit: 10;" d="M 25.000885 119.001816 C 55.386917 119.039917 85.772629 118.888672 116.158707 119.1026 C 114.373337 121.025085 112.590881 122.949905 110.809036 124.876297 C 82.206375 125.128128 53.603546 124.958298 25.000702 124.995422 C 25.000748 123.497009 25.000839 120.500214 25.000885 119.001816 Z M 25.000885 119.001816 " transform="matrix(1,0,0,1,0,0)"/>
<path style="stroke: none; fill-rule: nonzero; fill: rgb(77.647066%,96.862751%,74.117649%); opacity: 1;" d="M 25.000885 119.001816 C 55.386917 119.039917 85.772629 118.888672 116.158707 119.1026 C 114.373337 121.025085 112.590881 122.949905 110.809036 124.876297 C 82.206375 125.128128 53.603546 124.958298 25.000702 124.995422 C 25.000748 123.497009 25.000839 120.500214 25.000885 119.001816 Z M 25.000885 119.001816 "/>
<path style="fill: none; stroke-width: 0.1; stroke-linecap: butt; stroke-linejoin: miter; stroke: rgb(77.647066%,96.862751%,74.117649%); opacity: 1;stroke-miterlimit: 10;" d="M 118.061035 119.893127 C 120.002563 121.649216 121.940857 123.417236 123.887115 125.176971 C 124.11734 153.783508 123.962433 182.390869 123.995392 210.999298 C 122.497086 210.999252 119.500488 210.999161 118.002197 210.999115 C 118.020294 180.629471 117.934509 150.261398 118.061035 119.893127 Z M 118.061035 119.893127 " transform="matrix(1,0,0,1,0,0)"/>
<path style="stroke: none; fill-rule: nonzero; fill: rgb(77.647066%,96.862751%,74.117649%); opacity: 1;" d="M 118.061035 119.893127 C 120.002563 121.649216 121.940857 123.417236 123.887115 125.176971 C 124.11734 153.783508 123.962433 182.390869 123.995392 210.999298 C 122.497086 210.999252 119.500488 210.999161 118.002197 210.999115 C 118.020294 180.629471 117.934509 150.261398 118.061035 119.893127 Z M 118.061035 119.893127 "/>
<path style="fill: none; stroke-width: 0.1; stroke-linecap: butt; stroke-linejoin: miter; stroke: rgb(77.647066%,96.862751%,74.117649%); opacity: 1;stroke-miterlimit: 10;" d="M 25.000015 131.00621 C 51.388916 131.028549 77.777588 130.907135 104.166626 131.077103 C 102.381073 133.008926 100.59436 134.939743 98.811737 136.875717 C 74.208725 137.109009 49.605484 136.979523 25.002304 136.993103 C 25.00174 135.496384 25.000595 132.502945 25.000015 131.00621 Z M 25.000015 131.00621 " transform="matrix(1,0,0,1,0,0)"/>
<path style="stroke: none; fill-rule: nonzero; fill: rgb(77.647066%,96.862751%,74.117649%); opacity: 1;" d="M 25.000015 131.00621 C 51.388916 131.028549 77.777588 130.907135 104.166626 131.077103 C 102.381073 133.008926 100.59436 134.939743 98.811737 136.875717 C 74.208725 137.109009 49.605484 136.979523 25.002304 136.993103 C 25.00174 135.496384 25.000595 132.502945 25.000015 131.00621 Z M 25.000015 131.00621 "/>
<path style="fill: none; stroke-width: 0.1; stroke-linecap: butt; stroke-linejoin: miter; stroke: rgb(77.647066%,96.862751%,74.117649%); opacity: 1;stroke-miterlimit: 10;" d="M 130.044662 131.890976 C 131.990326 133.647202 133.935196 135.41362 135.885345 137.174606 C 136.101929 161.781189 135.980591 186.388916 135.993637 210.997696 C 134.496857 210.99826 131.503281 210.99942 130.0065 210.999985 C 130.010956 184.629227 129.947144 158.260162 130.044662 131.890976 Z M 130.044662 131.890976 " transform="matrix(1,0,0,1,0,0)"/>
<path style="stroke: none; fill-rule: nonzero; fill: rgb(77.647066%,96.862751%,74.117649%); opacity: 1;" d="M 130.044662 131.890976 C 131.990326 133.647202 133.935196 135.41362 135.885345 137.174606 C 136.101929 161.781189 135.980591 186.388916 135.993637 210.997696 C 134.496857 210.99826 131.503281 210.99942 130.0065 210.999985 C 130.010956 184.629227 129.947144 158.260162 130.044662 131.890976 Z M 130.044662 131.890976 "/>
<path style="fill: none; stroke-width: 0.1; stroke-linecap: butt; stroke-linejoin: miter; stroke: rgb(77.647066%,96.862751%,74.117649%); opacity: 1;stroke-miterlimit: 10;" d="M 25.000504 143.004654 C 47.388336 143.014313 69.775787 142.920776 92.163803 143.088852 C 90.377396 145.016907 88.591614 146.94603 86.808655 148.879593 C 66.20607 149.08374 45.603638 148.994186 25.001022 148.995056 C 25.0009 147.497452 25.000641 144.502258 25.000504 143.004654 Z M 25.000504 143.004654 " transform="matrix(1,0,0,1,0,0)"/>
<path style="stroke: none; fill-rule: nonzero; fill: rgb(77.647066%,96.862751%,74.117649%); opacity: 1;" d="M 25.000504 143.004654 C 47.388336 143.014313 69.775787 142.920776 92.163803 143.088852 C 90.377396 145.016907 88.591614 146.94603 86.808655 148.879593 C 66.20607 149.08374 45.603638 148.994186 25.001022 148.995056 C 25.0009 147.497452 25.000641 144.502258 25.000504 143.004654 Z M 25.000504 143.004654 "/>
<path style="fill: none; stroke-width: 0.1; stroke-linecap: butt; stroke-linejoin: miter; stroke: rgb(77.647066%,96.862751%,74.117649%); opacity: 1;stroke-miterlimit: 10;" d="M 142.052689 143.891678 C 143.995804 145.649628 145.94072 147.415756 147.889664 149.177856 C 148.076309 169.783783 147.996399 190.390594 147.99501 210.998993 C 146.497162 210.999115 143.50145 210.999374 142.003601 210.999496 C 142.006302 188.628967 141.951736 166.2603 142.052689 143.891678 Z M 142.052689 143.891678 " transform="matrix(1,0,0,1,0,0)"/>
<path style="stroke: none; fill-rule: nonzero; fill: rgb(77.647066%,96.862751%,74.117649%); opacity: 1;" d="M 142.052689 143.891678 C 143.995804 145.649628 145.94072 147.415756 147.889664 149.177856 C 148.076309 169.783783 147.996399 190.390594 147.99501 210.998993 C 146.497162 210.999115 143.50145 210.999374 142.003601 210.999496 C 142.006302 188.628967 141.951736 166.2603 142.052689 143.891678 Z M 142.052689 143.891678 "/>
</g>
</svg>
